<svg id="Layer_1" xmlns="http://www.w3.org/2000/svg" viewBox="0 0 1437.8 201.4">
  <style>
    .st0{fill:#ed1b2e}.st1{fill:#c8202f}
  </style>
  <path class="st0" d="M1122.9 70.6h-78.6c-12.8 0-8.4 7.2-8.4 7.2 6.4 7.2 5.4 23 5.4 23v80.9c0 12.1 10.6 11.5 10.6 11.5h82.9c53.7 0 54.8-49.1 54.8-49.1v-30.7c0-44.1-66.7-42.8-66.7-42.8zm59.3 73.3c0 .4-.5 11.1-6.6 21.5-7.9 13.5-21.7 20.3-40.8 20.3H1052.9c-1.3 0-2.3 0-3.2-.8-.7-.7-1.1-1.4-1.1-3.3v-80.9-.8-3.1c0-3.8-.4-8.3-1.6-12.8-.6-2.1-.4-6.1 2.6-6.1h73.3c.4 0 34.9-.4 51.1 15.6 5.4 5.3 8 11.8 8 19.9.2 0 .2 30.2.2 30.5z"/>
  <path class="st0" d="M1117.4 91.3h-20.2c-11.8 0-10.7 10-10.7 10l1.7 69.6c0 8.4 6.9 7.3 6.9 7.3h21.5c26.4 0 26.2-44 26.2-44 0-46.9-25.4-42.9-25.4-42.9zm-.8 79.4h-20.9c0-.3-1.7-69.4-1.7-69.4l-.1-1.6s0-.6.4-.8c.6-.3 1.1-.2 2.9-.2H1120.3c1.6.2 4 1 6.5 3.2 6.7 6 8.7 13.2 8.7 32.2-.2 1.5-.6 36.6-18.9 36.6z"/>
  <path class="st1" d="M452.6 182c-18.8-16.5-40.8-49.1-40.8-49.1 29.8-4.3 29.3-30.7 29.3-30.7 0-35.3-34.5-31.7-34.5-31.7h-90.1c-10 0-7.3 4.5-7.3 4.5l6.5 13.7s.8 1.6.8 3.6V187c0 6.6 6.2 6.1 6.2 6.1H361.1c6.6 0 3.8-6.9 3.8-6.9l-4.5-14.3c-.8-2.5-.8-5.5-.8-5.7v-31.4l39.9 53.8.7.9c1.1 1.3 3.9 3.6 9.4 3.6h43.2c14 .1-.2-11.1-.2-11.1zm-79.9-58.4h-9s-5 0-5-4.2V89.3s-.8-4.6 6.9-4.9c0 0 5.6-.1 9.9-.1 0 0 16.5-.5 16.5 19.9.1 0 2 19.4-19.3 19.4zM1023.6 164.7v-68c0-26.5-27.5-28.5-38.4-29.1-10.9-.5-33.2 11.6-37.4 9.9-4.2-1.8-5.4-6.9-9.8-6.9h-50c-7.4 0-9.6 6.4-3.5 10 7.8 4.7 8.8 27 8.8 27V187c0 6.2 7.8 6.2 7.8 6.2h53.5c5.1 0 .5-7.7.5-7.7l-9.9-20.8v-54.6s0-11.4 12.4-11.4c12.5 0 10.9 12.5 10.9 12.5v71.7c0 9.9 8.3 10.3 8.3 10.3l.5-7.4c-.6-.1-1.4-.4-1.4-2.9v-71.5c.1-.5.1-1.1.1-1.6 0-4.1-1.6-8-1.6-8.1-2.7-6.6-8.9-10.5-16.9-10.5-14.6 0-19.9 11.3-19.9 18.8v56.3s3.8 7.9 6.6 14c2.6 5.6-.9 5.4-3.2 5.4h-35c-3.3 0-5.5-3.1-5.5-6.4V107.2c0-15.1-.7-13.9-2.5-20.6-1.2-4.6-.5-8.6 4.9-8.6h31.4c3.2 0 3.6 6.1 9.7 6.9 3.8.5 7.1-1.1 7.1-1.1 9.9-3.6 26.5-9.1 33.4-8.7 21.7 1 31.4 7.7 31.4 21.7v69.7l4.3 14c1.8 5.8-.9 5.4-3.2 5.4h-39.8l-.5 7.4h53.7c4 0 .5-7.7.5-7.7l-7.3-20.9zM830.9 70.6H799c-28.4 0-51.5 23.1-51.5 51.5v23.3c0 28.5 23.1 51.5 51.5 51.5h31.9c28.5 0 51.5-23.1 51.5-51.5v-23.3c0-28.4-23.1-51.5-51.5-51.5zm44.1 74.8c0 24.3-19.8 44.1-44.1 44.1H799c-24.3 0-44.1-19.8-44.1-44.1v-23.3c0-24.3 19.8-44.1 44.1-44.1h31.9c24.3 0 44.1 19.8 44.1 44.1v23.3zM296.8 170c-.2-.7-.2-1.2-.2-1.2V86.6c0-.4.1-.7.1-.7 6.8-16.3-7.8-15.3-7.8-15.3h-33c-12.7 0-9.6 6-9.6 6l6.6 16.8s.6 1.6.6 3.4v55.7c0 5.7.4 26.1-22.2 26.1-22.6 0-21.5-13.8-21.5-13.8V82.1c0-.8.4-1.6.4-1.6 6.5-10.7-6.9-9.9-6.9-9.9h-41.4c-8.8 2-2.7 9.1-2.7 9.1 6.9 7.3 6.1 21.1 6.1 21.1v68.6c0 10.4 12.3 19.9 12.3 19.9 28.1 20.5 72.8-6.1 72.8-6.1s1.4 10 5.9 10h41.6c6.6 0 3.8-6.9 3.8-6.9l-4.9-16.3zm-46.2 13.2zM87.7 70.6H9.2c-12.8 0-8.4 7.2-8.4 7.2 6.4 7.2 5.4 23 5.4 23v80.9c0 12.4 13.4 11.5 13.4 11.5h80.1c53.7 0 54.8-49.1 54.8-49.1v-30.7c-.1-44.1-66.8-42.8-66.8-42.8zm-8 109.9H58.2s-6.9.3-6.9-7.3V94.6s-.6-10 10.7-10h18.4s27.2-1.6 27.2 49.5c.1 0-1.5 46.4-27.9 46.4zM1122.9 70.6h-78.6c-12.8 0-8.4 7.2-8.4 7.2 6.4 7.2 5.4 23 5.4 23v80.9c0 12.1 10.6 11.5 10.6 11.5h82.9c53.7 0 54.8-49.1 54.8-49.1v-30.7c0-44.1-66.7-42.8-66.7-42.8zm59.3 73.3c0 .4-.5 11.1-6.6 21.5-7.9 13.5-21.7 20.3-40.8 20.3H1052.9c-1.3 0-2.3 0-3.2-.8-.7-.7-1.1-1.4-1.1-3.3v-80.9-.8-3.1c0-3.8-.4-8.3-1.6-12.8-.6-2.1-.4-6.1 2.6-6.1h73.3c.4 0 34.9-.4 51.1 15.6 5.4 5.3 8 11.8 8 19.9.2 0 .2 30.2.2 30.5z"/>
  <path class="st1" d="M1117.4 91.3h-20.2c-11.8 0-10.7 10-10.7 10l1.7 69.6c0 8.4 6.9 7.3 6.9 7.3h21.5c26.4 0 26.2-44 26.2-44 0-46.9-25.4-42.9-25.4-42.9zm-.8 79.4h-20.9c0-.3-1.7-69.4-1.7-69.4l-.1-1.6s0-.6.4-.8c.6-.3 1.1-.2 2.9-.2H1120.3c1.6.2 4 1 6.5 3.2 6.7 6 8.7 13.2 8.7 32.2-.2 1.5-.6 36.6-18.9 36.6zM682.2 70.6c-10.5 0-27.2 4.5-27.2 4.5V49.4c0-8.8-4.6-9.2-4.6-9.2h-50.1c-10 0-6.7 6.1-6.7 6.1l6.1 17.6v122.3c0 7.5 10.7 6.9 10.7 6.9h88.5c35.1 0 38-59.8 38-59.8.1-62-44.2-62.7-54.7-62.7zm16.9 115.2s-63.1.1-84.7.1c-4.4 0-7.2-3.2-7.2-5.4V61.4s-1.4-6.6-1.4-8.2c0-5.2 3.2-5.6 3.8-5.6h30.7c3.3 0 7.1 3.4 7.1 7.9 0 7.8.1 21.3.1 28.4v4.6s2.1-.9 4.3-2c2.4-1.2 4.6-2 6.6-2.8 3.9-1.7 15.9-5.7 23.7-5.7 31.4 0 47.3 18.6 47.4 55.2 0 2.4-3.3 52.6-30.4 52.6z"/>
  <path class="st1" d="M668.5 91.3c-11.4 0-20.7 9.3-20.7 20.7v45.5c0 11.4 9.3 20.7 20.7 20.7 11.4 0 20.7-9.3 20.7-20.7V112c0-11.5-9.3-20.7-20.7-20.7zm13.2 66.2c0 7.3-6 13.3-13.3 13.3-7.3 0-13.3-6-13.3-13.3V112c0-7.3 6-13.3 13.3-13.3 7.3 0 13.3 5.9 13.3 13.3v45.5zM813.8 91c-11.4 0-20.7 9.3-20.7 20.7v45.5c0 11.4 9.3 20.7 20.7 20.7 11.4 0 20.7-9.3 20.7-20.7v-45.5c0-11.4-9.2-20.7-20.7-20.7zm13.3 66.2c0 7.3-5.9 13.3-13.3 13.3-7.3 0-13.3-6-13.3-13.3v-45.5c0-7.3 6-13.3 13.3-13.3 7.3 0 13.3 6 13.3 13.3v45.5zM584.1 169.4l-.4-1.8V96.2c0-21.1-31.3-25.6-75.9-25.6-42.5 0-39.8 22.3-39.8 22.3 0 11.9 6.4 11.2 6.4 11.2H500s4.9.3 4.9-2.5c0-2.4-.2-4.8-.2-7.2-.2-4.1-.1-7.1 4-8.9 3.7-1.7 8.2-1.9 12.2-1.9 19.2 0 19.9 14.6 19.9 14.6v14.6c0 12.2-9.6 11.1-9.6 11.1H499c-35.4-.1-39.1 19.9-39.5 36-.4 16.1-3.8 28.7 17.6 36.8 21.5 8 60.9-10.4 60.9-10.4 0 5 3.8 6.4 6.1 6.9h41.5c6.6 0 3.8-6.9 3.8-6.9l-5.3-16.9zm-56.9 11.2c-4.1 1.2-10 .7-13.5.2-3.2-.5-5.3-2.5-6.1-3.5-.1-.2-.3-.3-.4-.5-1.7-2.3-3.1-5.7-3.2-10.4-.4-12.7-1.9-33.4 28-31.8 0 0 9.2.1 9.2 5.8v23.8s.5 11.8-14 16.4z"/>
  <g>
    <path d="M1412.5 5c.5.9 1.1 2.7 1.6 3.8.2.5.3.9.5 1.2.3.5.9.8 1.6.5.7-.3 1.4-1.1 2.1-1.3-.4 2.3-1 5.2-1.5 7.6-.1.6-.3 1.4.2 1.5.6.2 1-.5 1.3-.8.9-1.1 1.9-2.4 2.8-3.3.2.4.3 1 .5 1.4.2.3.5.8.9.8.5.1 1.4-.1 2.2-.3.7-.1 1.5-.3 2-.4-.3 1-.7 2.4-1.1 3.5-.1.4-.3.9-.3 1.2.1 1 1.3 1 2.1 1.4-1.9 1.5-3.9 3-5.9 4.5-.6.5-1.4.9-1.9 1.6-.2 1.4.6 1.9.8 3-1.8-.4-3.7-.7-5.6-1.1-.6-.1-1.3-.3-1.8.1.1 2.6.2 5.5.3 7.8h-1.7c.1-2.8.2-5 .3-7.8-.4-.5-1.2-.3-1.8-.2-1.8.3-3.8.7-5.5 1.1 0-1 .9-1.5.7-2.9-.4-.7-1.2-1.2-1.8-1.7-1.9-1.5-4-2.9-6-4.4.4-.4 1.2-.4 1.7-.7.2-.1.4-.4.5-.7.1-.4-.2-.8-.3-1.2-.3-1.1-.7-2.5-1-3.6.6.1 1.3.2 2 .4.8.1 1.8.4 2.4.2.7-.3.8-1.3 1.1-2.1.3 0 .4.3.5.5.7.9 1.5 1.7 2.3 2.7.4.5.9 1.3 1.6.6-.4-3-1.1-5.8-1.6-8.8.1-.2.3.1.5.2.4.3 1.1.9 1.7 1.1.7.3 1.1-.1 1.5-.6.6-1.5 1.4-3.2 2.1-4.8z" fill-rule="evenodd" clip-rule="evenodd" fill="#c8202f"/>
    <path class="st1" d="M1286 36.4h49.2V53h-33.3l-1.8 11.2c2.3-1.1 4.6-1.9 6.8-2.4 2.3-.5 4.5-.8 6.7-.8 7.5 0 13.5 2.3 18.2 6.8 4.6 4.5 7 10.2 7 17.1 0 4.8-1.2 9.5-3.6 13.9-2.4 4.4-5.8 7.8-10.2 10.2-4.4 2.3-10 3.5-16.9 3.5-4.9 0-9.1-.5-12.6-1.4-3.5-.9-6.5-2.3-9-4.2-2.5-1.8-4.5-3.9-6-6.3-1.5-2.3-2.8-5.3-3.8-8.8l21-2.3c.5 3.4 1.7 5.9 3.6 7.7 1.9 1.7 4.1 2.6 6.7 2.6 2.9 0 5.3-1.1 7.2-3.3 1.9-2.2 2.8-5.5 2.8-9.8 0-4.4-1-7.7-2.9-9.8-1.9-2.1-4.4-3.1-7.6-3.1-2 0-3.9.5-5.8 1.5-1.4.7-2.9 2-4.6 3.9l-17.7-2.5 6.6-40.3zM1347.2 73.4c0-14.2 2.6-24.1 7.7-29.8s12.9-8.5 23.3-8.5c5 0 9.1.6 12.4 1.9 3.2 1.2 5.9 2.9 7.9 4.8 2 2 3.6 4.1 4.8 6.3 1.2 2.2 2.1 4.7 2.8 7.7 1.4 5.6 2.1 11.4 2.1 17.4 0 13.5-2.3 23.4-6.9 29.7-4.6 6.3-12.5 9.4-23.7 9.4-6.3 0-11.4-1-15.2-3-3.9-2-7-4.9-9.5-8.8-1.8-2.7-3.2-6.5-4.2-11.3-1-4.7-1.5-10-1.5-15.8zm20.5.1c0 9.5.8 16 2.5 19.5s4.1 5.2 7.3 5.2c2.1 0 3.9-.7 5.5-2.2 1.5-1.5 2.7-3.8 3.4-7 .7-3.2 1.1-8.2 1.1-14.9 0-9.9-.8-16.6-2.5-20-1.7-3.4-4.2-5.1-7.6-5.1-3.4 0-5.9 1.7-7.4 5.2s-2.3 9.9-2.3 19.3z"/>
    <g>
      <path class="st1" d="M1275.5 122.8h7.3l4.3 7.2 4.3-7.2h7.3l-8.3 12.4v8.9h-6.6v-8.9l-8.3-12.4zM1305.3 122.8h17.7v4.6h-11.1v3.4h10.3v4.3h-10.3v4.2h11.4v4.8h-18v-21.3zM1344.4 140.6h-7.5l-1 3.5h-6.7l8-21.3h7.2l8 21.3h-6.9l-1.1-3.5zm-1.4-4.6l-2.4-7.7-2.3 7.7h4.7zM1359 144.1v-21.3h11c2 0 3.6.2 4.7.5s1.9 1 2.6 1.9c.7.9 1 2.1 1 3.5 0 1.2-.3 2.2-.8 3.1-.5.9-1.2 1.6-2.1 2.1-.6.3-1.3.6-2.3.8.8.3 1.4.5 1.7.8.2.2.6.5 1.1 1.1.5.6.8 1 .9 1.3l3.2 6.2h-7.4l-3.5-6.5c-.4-.8-.8-1.4-1.2-1.6-.5-.3-1-.5-1.6-.5h-.6v8.7h-6.7zm6.6-12.6h2.8c.3 0 .9-.1 1.7-.3.4-.1.8-.3 1.1-.7.3-.4.4-.8.4-1.2 0-.7-.2-1.2-.7-1.6-.4-.4-1.3-.6-2.5-.6h-2.9v4.4zM1385.4 137.1l6.3-.4c.1 1 .4 1.8.8 2.3.7.9 1.6 1.3 2.9 1.3.9 0 1.7-.2 2.2-.7.5-.4.8-1 .8-1.5 0-.6-.2-1-.7-1.5-.5-.4-1.6-.8-3.4-1.2-2.9-.6-4.9-1.5-6.2-2.6-1.2-1.1-1.9-2.4-1.9-4.1 0-1.1.3-2.1 1-3.1.6-1 1.6-1.7 2.9-2.3 1.3-.6 3-.8 5.2-.8 2.7 0 4.8.5 6.2 1.5 1.4 1 2.3 2.6 2.6 4.8l-6.2.4c-.2-1-.5-1.7-1-2.1-.5-.4-1.3-.7-2.2-.7-.8 0-1.3.2-1.7.5-.4.3-.6.7-.6 1.2 0 .3.2.6.5.9.3.3 1 .5 2.2.8 2.9.6 4.9 1.2 6.2 1.9 1.2.6 2.2 1.4 2.7 2.4.6.9.9 2 .9 3.2 0 1.4-.4 2.6-1.1 3.8-.8 1.2-1.8 2-3.2 2.6-1.4.6-3.1.9-5.1.9-3.6 0-6.1-.7-7.5-2.1-1.6-1.5-2.4-3.3-2.6-5.4z"/>
    </g>
    <g>
      <path class="st1" d="M1286.9 170.7h-2.7v-10.3c-1 .9-2.2 1.6-3.5 2.1V160c.7-.2 1.5-.7 2.3-1.3.8-.6 1.4-1.4 1.7-2.3h2.2v14.3zM1294 167.4l2.6-.3c.1.5.2.9.5 1.2.3.3.6.4 1.1.4.6 0 1-.3 1.4-.8.4-.5.6-1.6.8-3.2-.7.8-1.5 1.2-2.6 1.2s-2.1-.4-2.9-1.3c-.8-.9-1.2-2-1.2-3.4s.4-2.6 1.3-3.5c.9-.9 1.9-1.3 3.3-1.3s2.6.6 3.5 1.7c.9 1.1 1.4 2.9 1.4 5.5s-.5 4.5-1.4 5.6c-1 1.2-2.2 1.7-3.8 1.7-1.1 0-2-.3-2.7-.9-.7-.5-1.1-1.4-1.3-2.6zm6.2-5.9c0-.9-.2-1.6-.6-2-.4-.5-.9-.7-1.4-.7-.5 0-.9.2-1.3.6-.3.4-.5 1-.5 2 0 .9.2 1.6.5 2 .4.4.8.6 1.4.6.5 0 1-.2 1.3-.6.4-.5.6-1.1.6-1.9zM1317.2 160l-2.6.3c-.1-.5-.2-.9-.5-1.2-.3-.3-.6-.4-1.1-.4-.6 0-1.1.3-1.5.8-.4.5-.6 1.6-.8 3.2.7-.8 1.5-1.2 2.5-1.2 1.1 0 2.1.4 2.9 1.3.8.9 1.2 2 1.2 3.4 0 1.5-.4 2.6-1.3 3.5-.9.9-1.9 1.3-3.3 1.3s-2.6-.6-3.5-1.7c-.9-1.1-1.4-2.9-1.4-5.5s.5-4.5 1.4-5.6c1-1.2 2.2-1.7 3.8-1.7 1.1 0 2 .3 2.7.9.8.5 1.3 1.4 1.5 2.6zm-6.2 5.9c0 .9.2 1.6.6 2.1.4.5.9.7 1.4.7.5 0 .9-.2 1.3-.6.3-.4.5-1 .5-1.9 0-.9-.2-1.6-.5-2-.4-.4-.8-.6-1.4-.6-.5 0-1 .2-1.3.6-.4.3-.6.9-.6 1.7zM1322 159.2v-2.5h9.3v2c-.8.8-1.6 1.8-2.3 3.3-.8 1.4-1.4 2.9-1.8 4.5-.4 1.6-.6 3-.6 4.3h-2.6c0-2 .5-4 1.2-6 .8-2 1.8-3.9 3.1-5.5h-6.3zM1335.1 166.6v-2h11v2h-11zM1359.2 168.2v2.5h-9.5c.1-1 .4-1.9.9-2.7.5-.9 1.5-2 3.1-3.4 1.2-1.1 2-1.9 2.3-2.3.4-.6.6-1.1.6-1.7 0-.6-.2-1.1-.5-1.4-.3-.3-.8-.5-1.4-.5-.6 0-1 .2-1.4.5-.3.3-.5.9-.6 1.7l-2.7-.3c.2-1.5.7-2.6 1.5-3.2.9-.7 1.9-1 3.2-1 1.4 0 2.5.4 3.3 1.1.8.8 1.2 1.7 1.2 2.8 0 .6-.1 1.2-.3 1.8-.2.6-.6 1.2-1.1 1.8-.3.4-.9 1-1.8 1.8s-1.4 1.3-1.6 1.6c-.2.3-.4.5-.6.8h5.4zM1368.7 156.4c1.4 0 2.5.5 3.2 1.5.9 1.2 1.4 3.1 1.4 5.8 0 2.7-.5 4.6-1.4 5.8-.8 1-1.8 1.5-3.2 1.5-1.4 0-2.5-.5-3.3-1.6-.8-1.1-1.3-3-1.3-5.7s.5-4.6 1.4-5.8c.7-1 1.8-1.5 3.2-1.5zm0 2.3c-.3 0-.6.1-.9.3-.3.2-.5.6-.6 1.1-.2.7-.3 1.9-.3 3.6 0 1.7.1 2.8.3 3.4.2.6.4 1 .6 1.2.3.2.5.3.9.3.3 0 .6-.1.9-.3.3-.2.5-.6.6-1.1.2-.7.3-1.9.3-3.5 0-1.7-.1-2.8-.3-3.4-.2-.6-.4-1-.6-1.3-.3-.2-.6-.3-.9-.3zM1385 170.7h-2.7v-10.3c-1 .9-2.2 1.6-3.5 2.1V160c.7-.2 1.5-.7 2.3-1.3.8-.6 1.4-1.4 1.7-2.3h2.2v14.3zM1392.1 159.2v-2.5h9.3v2c-.8.8-1.6 1.8-2.3 3.3-.8 1.4-1.4 2.9-1.8 4.5-.4 1.6-.6 3-.6 4.3h-2.6c0-2 .5-4 1.2-6 .8-2 1.8-3.9 3.1-5.5h-6.3z"/>
    </g>
    <g>
      <path class="st1" d="M1423.6 47.6c0-.9-.5-.6-.6-.7.2 1.5.8.7.6.7zM1424.8 62.5l-.2-.3.5 2.2zM1424.8 76.4c.9-1.3-.1-5 .2-7.5l.2-.4-.7-1.1c.1 2.9.5 6.9.3 9zM1422.9 83.8c.3-.5.3 1.6.1-1.7 0 .2-.1.2-.1.3v1.4zM1422.9 82.4c0-1.5-.3.9 0 0zM1423.1 89.1l-.3-1.9c-.2.4-.2 2.1-.4 1.5.2 1.9.4 1.5.7.4zM1423.8 90.9l-.1-1c-.1.2-.2.5.1 1zM1423.4 87.8l.3 2.1c.1-.3.4-.3-.1-1 .2.2-.1-.2-.2-1.1zM1423.5 86.6c.2-1.1.3-2.5.6-.5-.1-3.7-.7-3.2-.6.5zM1425.7 77.1l.3-1.4-.3-1.2c.1.5-.3 2.7 0 2.6zM1422.7 101.1c.2.1.5-.6.7-.8l-.2-1.4c-.1.7-.3 2.1-.5 2.2zM1423.4 100.3l.3 2.1c.1-1.9-.1-2.2-.3-2.1zM1424.7 91.3l-.6-3.5.6 4.2zM1422.6 109.2l-.4-1.2.7 2.2zM1422.7 114.6c-.4-.9-.6 1.2-.8.3.1 1.5.4 2.7.6 3.8-.1-1.2-.1-2.4.2-4.1zM1422.9 120.6c-.1-.6-.2-1.2-.4-1.9.1.7.2 1.3.4 1.9zM1423.6 106.1c-.1.2-.4.5-.5 1.7l.5-.8v-.9zM1423.6 106.9v0zM1423.6 105.9v.2c.1-.1.1-.2 0-.2zM1424.3 96.9c.3 1.3.6 3.9 1.1 1.3-.4-.9-.7.5-1.1-1.3zM1424.3 104.8l.1-2.3c-.1 0-.3.5-.5-.2l.4 2.5zM1424.5 105.9l-.2-1.1-.1.9zM1423.4 116.8c.2 1 .2 2 .3 3.3.1-1.3.2-2.6.2-3.9-.2-.3-.5-.8-.5.6zM1423.6 112v.2c.1-.2.1-.3 0-.2zM1423.7 131.9l.1-.2h-.1zM1424 115.9c.1-1 0-1.6-.2-2.1.1.7.1 1.5.1 2.3.1.1.1.1.1-.2zM1423.2 123.9c.1-.5.2-1.1.3-1.7-.2.6-.4 1.6-.3 1.7zM1423.5 112.5v-.1c-.2.3-.1.2 0 .1zM1423.5 112.5c.1.5.2.9.3 1.3 0-.6-.1-1.1-.2-1.6 0 .1-.1.2-.1.3z"/>
      <path class="st1" d="M1427.1 135.5c-.5-.2-.9-2.7-.4-4.9-.4-2.2-2-.8-2.9 1.1.2.1.4.1.7 2.3.3-.8.6-5 1.1-3.1.3 3-.2 2.4-.4 3.9.6-1.2.9 3.8 1.8 3.1l-.3-2.6s.3.9.4.2zM1423.9 127.4l-.1-.9c-.1 1-.3 1.8-.7 3.2.2 1.5.4 1.8.6 2l.1-4.5.1.2zM1423.8 122.4c.5.7.8 2.9 1.3 1.6 0-2.7-.4-1.9-.7-3.5.2 4.3-.2-1.3-.6 1.9 0-.9-.1-1.7-.1-2.4-.1.8-.1 1.5-.2 2.3v-.1c.1-.2.1-.2.1 0v.1c.1-.1.1 0 .2.1-.1 1.3-.1.2-.2-.2 0 0-.1 0-.1-.1l.3 4.4c.1-.9.1-2.1 0-4.1zM1426.5 100.5c0 .1-.1.1-.1.1 0 .3 0 .4.1-.1zM1426.1 102.3c-.1-.3-.3-.6-.2-1.6.2-.9.3 0 .4 0-.1-.6-.4-2.2-.6-.2l.1.3c-.2 1.8-.8 4-.9 3.7.4-.6.8-1 1.2-2.2zM1425.1 112.5l.3 3.6.5-1.8-.3.1c.1-2.1-.3-1.7-.5-1.9zM1423.5 132.3l-.6-.5.8 2.1zM1423.5 137l-.5-.1.3 1.2zM1254.7 140.3l-.1-1.1c0 .5 0 .9.1 1.1zM1254.6 148l.2.2c-.1-.3-.2-.5-.2-.2zM1361 184.2c-1.6-.5-3.3-1.2-3.1-.6l.5.5c1-.1 1.9 0 2.6.1zM1281.6 187.4c.1.1.3.1.5.2.4-.2.7-.4 1-.5-.4.1-.9.2-1.5.3zM1280.5 189.6l-2-.3c.4.1 1.1.2 2 .3zM1254.1 98.1l-.5-1.2c0 1.9.2 1.1.5 1.2zM1423.7 183.6c-.1.2-.2.4-.2.5-.2 0-.4-.1-.5-.1.3.1.5.2.8.3.1-.1.2-.4-.1-.7zM1260.3 143.3c-.1-.7-.2-.9-.3-.9.1.7.2 1.1.3.9zM1421.3 184c.2.1.6.1.6.1.3-.1.6-.2 1-.1-.3-.1-.5-.2-.7-.2h-.3c-.1 0 0 0-.2.1 0 .1-.2.1-.4.1zM1327.5 12c.1 0 .2 0 .3.1.1-.1-.1-.1-.3-.1zM1372.1 17.4h-1.8 1.8zM1423.3 156c0-1-.1-.1 0 0zM1425.4 151.1c.1.2.1.4.3.4-.2 0-.3-.2-.3-.4zM1411.4 187.4c-.1 0-.1 0 0 0 .2.1.1 0 0 0zM1423.5 154.5c-.1.4-.1.8-.2 1.3.1-.2.2-.6.2-1.3zM1423.3 154.7c0-.3 0-.6.1-.9-.2-.1-.2 0-.1.9zM1423.3 157.4c0-.6 0-1.1.1-1.6 0 .2-.1.3-.1.2v1.4zM1256 27.1c0-.1 0-.1.1-.2-.3-1-.3-.6-.1.2zM1334.9 189.7h0zM1331.3 190.1c1.5-.7 2.4-.6 3.6-.4l-1.2-1.5-2.4 1.9z"/>
      <path class="st1" d="M1254.5 121.8l-.5 2.5c-.8-3-.5-5.3-1.2-2.9 1.7.4.2 9.8 1.8 10.2l-.4 1.7c0-.5-.1-.6-.1-1-.8 3.2 1.2 2.4 1 6.6-.1 1.5-.4 2.5-.6 1.5l.4 3.2c0 .9-.3.7-.3-.2l.1 4.9c.3.7.7 2.3.8 3.1-.2 1.3-.2-.6-.4-.3l.4 2.7c-.4 1.1-.9-1.2-.8-3-1.7 2.6.4 2.3-.6 7.8l-.2-2.6c-.9 1.7-.6 3.7-1.2 6.6.3-.7 1.5-5.8 1.9-2.9-.1.8-.2 1.9.1 3.5-.6 0-.4 1.6-.4 3.5l-.8-.1c.2 2.1.6 1.9 1 3.2-.1 2.4-.7 2.8-1.2 3.4-.1 3.8 1-2.6 1.1 1.9-.2 1.6-.1 2.9 0 4.3.1.7.1 1.4.2 2.2 0 .4.1.9.1 1.3.1.6.1 1.3.2 2-.3 3.5-.5-.4-.7.9.2 1 .4 1.9.6 2.7 0 .7-.2.7-.3.6 0 .4.1.7.1.8 1.2-.3.7-.7 3.8-.8.4-.2.9-.2 1.7-.2.7.1 1.9.2 2.6.4 1.6.3 3.6.6 5.2.1.8.2-.4.5-.1.8 4.4-.6 3.8-.5 7.4-1.3l3.1.5c-2.3-.6.6-1.3 3.1-1.9-.8-.3-1.5-.5-1.9-.7l4-.4c.5.1.1.4-.6.7.3-.1.5-.1.7-.2 1.4.3.7.7-.3 1.2-.5-.2-1-.3-1.4-.5-1 .5-1.9 1-1.7 1.5.3-.1.8-.2 1.3-.2-.3.1-.4.2-.3.3.1.1.6-.1 1.2-.3l.9.9.2-.3 5.3.5c3.8-.9 7-2.2 13-2.5-1.5.6-.3 1-.4 1.8-1.6-.8-4.6.3-7.7.2 1.6.1 1.3.4.8.6l5.5-.7c-.1.6 1.2.5 2.6.7-1.1-1.2 4.1-.8 6.4-1.2.1.4-.4.8-3.1.7 3 .9 3.9-1.4 6.9-.7-.7 0-1-.1-1.3.2 1.6-.4 5.4-.1 4.5.3h-.7c4.4.1 13.5 0 14.2-1 0 .1-.6 1.3-.9 1.5l7.9-3.5c-.7.9 2 3-1.7 3.5 1.1.1 2.4.3 4.6 0-.7-.1-1.8-1.3-.8-1.4 2.7 1 1.9.5 5.2 1.4-1.1-.2.1-1.6 1.8-1.6-.3.2.1 1.4-.5 1.5l4.3-1.4c-1.1.2-.2 1.2.8 1.6-.4-.3 3.7 0 4.8-.1l-1.8-.3c4.8.2 4.7-1.9 9.5-1.9-.6.3-1.4 1.8 1 1.9 1.1-.7 4.9-3.4 9.1-3.9l.8.4 3.2-.5c-2 1.1-7.7 3.3-10.8 4.2 1.8.3.5.5 3.2.4 1 .4-1.5.6-2.3.6l6.3.2c-.3-.8 4.8-.8 4.6-1.5l-6.8.9c-.3-.8 3.9-2.3 8.4-2.2 1.1.3-.8 1.5-.8 1.7.6-.3 4.2-.5 4.6-.3l-1.9.4c2.5.3 4-1.1 7-.3 1 .1 3.1 1.1 3.2.6-1.7-.9-2-3.9-.9-4.6.4.1 5.4.9 6.6 1.4 1.7.7-2.5 1.8-1.1 2.4.1-.2 1-.5 1.4-.6 1.1.2-.4.7 1.9.6.4-.8 4.8.1 1.1-.7 2.3-.2 2.4.2 5.1.1-.9-.5 2.4-1.8 4.7-2.1-.1.2.4.5.6.6 4.7.1 7.1.5 11.7.5.4.2 3.1.4 2.3.8.6-.1 1.1-.4 2.2-.4v-.6c.4-1.4.4-.2.4 1-.9 0-1.8.1-.2.5 0-.1.1-.2.5-.3-.3-1.6-.5-4.8-.7-6.5-.6.5-.3 3.1-.1 5.7-.6.1-1.1.2-1.6.2-.3-.4 0-.8.6-1.2-.3-.9-.6-2-.8-2.9-.1-.5-.2-.9-.3-1.5-.1-.5-.2-1.3-.3-1.9-.3-3.6.7-1.6.5-2.2.2-6.8-1.8-5.8-1.1-11.5.7-2.3 1.3-.1 1.8-.6.2 3-.4 4.5-.4 6.6l.3-2.5c.2.9.4 2.9.2 4 .6-1.9.1-11.5.7-16.8-.2-.9-.4-2.6-.7-1.8l.1 1.7c-.5 1.5-.7-3.1-1-1-.4-2.2-1-4.7-.7-7.9l.8-.6c-.2.1-.4 2.1-.2 2.9-.3-1.3 1-4.8 0-6.3l-.5 2.2c-.4-2.2-1.2-5-.9-7.8-.7 1.3.1.6-.8 2.6 1.1-1.7 0 7.1 1.1 4.4-1 2-.4 3.5-1.3 6.2.2-.1.5-.9.4 1.4.1.1.2.4.2.5v.2-.1c0 .1 0 .1 0 0 .1-.6.2-1 .4-1.2.6 1.2.6 4.9.8 6.1-.1 1.4-.3-.6-.5.2l.4 1.9c-.6.2-.9 3.7-1.2.4v2.9c-.3 1.7-.4 4.1-.2 5.6-.1 1.4.6 3.5.2 2.3l.3 4.6h-.1c0 1.6.1 3.2.2 4.9 0 .5.1.5.1.7l.1.6c0 .4.1.8 0 1.1-.7 0-1.5-.1-2-.4-1.4.1-3.1.3-5.6.2l-.5-.5c-2 .2-5.9-.5-6.8 0-2.1-1.3-9.6-.3-13-.5l-.1.6c-2.4 0-4.7.1-7.6.4l.2.5c-2.6.5-6.6-.4-10.6-.3.3-.2 1.3-.2 2 0-4.8-1.2-10.2.9-14.6 0-1.1.2-1.9.1-2.6 0h.3-.4l-1.5-.3c.5.1.9.2 1.3.3-.8 0-2.1.1-3.4.2l-.5-.6h-.3c-1.2-.2-1 .3-.3.7-.6.1-1.2.2-1.7.4-1-1-3.3.3-4.6-.7-.8.5-6.3.4-7 1.4 0-.1-.4-.2.3-.2-1.4-.1-2.8-.2-4 .1l-.6-.8-3 1c-1.8-.5-2.6-.7-.8-1.3-4.4.9-3.6.3-7.4 1.2l.2-.5c-1.3 0-3.5.7-4.3.3-3-.9-14.9-.1-22.7-1 1.5 1.4-3.6-.6-3.9.5-.5-.3-1.5-.5-.3-.8-3.9.3-5.9-.5-8.7.4-.5-.3.8-.5.4-.7-.3.1-1.3.3-1.7.1-.4-.2.6-.3 1.2-.4-4 .1-4.4 1.1-4.7 2.1-2-.5-3.1-.4-4.5.2-.7-.3-1.9-.7.6-.8-1.4 0-8.6-.5-8.8.3-.4-.2-2-.1-2.3 0-3.2 0-3.4-.1-6.6 0l.9.1c-.6.5-1.4.5-1.9.5-.6-.1-1.3-.2-2.3-.1l.1-.1c-.3-.1-.6-.1-.8-.1.2-1.6.1-1.7 0-2.1-.1-.5-.1-.6.3-3.4l-.6.3c-1.3-.5.7-5 .3-8.3l-.3 1.2c-.4-1.8 1.7-5 1.9-6.8.1-.4.2.6.3 1.2.7-4.7-.8-.6-.9-4.1.4-.6 1.1.8 1.1-1.5.3-1.2-1.3-6.9-.6-10.1-.3.7-.6 1.4-.9-.2-.1-2.5 1.2-6.8.2-9 .1-.3.2-.4.3-.5-.3-1.9-.4-6.2-1-7.4 2-1.8-1-11.9.9-11.9l-.1-5.9.2.2c.1-3.8-.3-5.1-.8-6.4.1-.9.3-.2.4-.2.4-5.5.3-6-.6-10.7l.6-.5c-.4-1.3 1-8 .2-13.4.1.1.2.2.3.6-.7-6.1 1.7-14.5-.5-16.8l-.5-4c-.2 5.2-1-.8-1.3 1.4-.1-2 .7-5.3.8-2.8l-.1.4c1.2.9.4-6.4 1.2-6.3-.1-10.2.6-20.1.6-29.7l-.9 1.1.1-3.3c.2-.9.7-1.2.7 1.2.5-1.3-.4-4-.6-4.1.4-4.7 1 1.8 1.1.4l-.1-1.9-.1.4c-.2-.8-.4-1.2-.5-1.8-.1-.6-.2-1.5-.2-2.2.2-1 .6-.2.6-.6.1 0 .1 0 0-.5v-.3l1.6.1c-.3-.2-.7-.5-1.2-.7.9-.3 2.5 0 1-.8.4.3 1.8.5 3.5.6 1.6.1 3.6.1 5.4.1 3.8 0 7.4-.1 8.3.1 2.6-.5 5.2-.5 8.4-.4-.8-.1-1.3-.9 1.5-.8-1 1.6 5 .7 7.3 1.9-2-.8 7.8-.2 4.7-1.3 2.3.1.1.6 1.9 1 5.5-.6 12 .4 18.8.2.1-.2-1-.5.4-.9l3.6 1.1c1.3-.1 1.2-1.2 3.7-.5-.3-.2-.9-.5 0-.5 13.2 1.1 27-.9 40.4 1.1-1.8-.4-.6-.5.8-.5-.9-.1 0-.5-.2-.8l5.6.8c1-.8 6-.1 6.6-.8l-1.8.1c2.4-.9-3.3-2-3-3.2-2.7 1-7-1.5-11.3-.1-1-.2.8-.4.3-.7-1.1.5-2.4.6-4.9.4l.3-.1c-6.9.1-9.9-.4-17.7-.7l.6.6c-1.7-.1-2-.3-2.8-.4-1.9.9 4.7 0 3 1-2.2-1.2-11.8 0-13.3-1.4-2.6 0 .8.7-1.8.7l-.7-.4-.7.5c-1.7-.1-2.5-.5-2.6-.8.4 0 1.2-.1 1.6-.1-2.2-.4-6.2.1-6.9 0l2.5.2c-7 .3-15.6-.1-22.4.6l.5.3c-5.2.5-4.2-.3-9.8-.1l.2-.1c-1.1.3-2.7.4-4.2.4 1.4-.3-2.7-.6-.8-1-5.6.5-2.8.4-6.5 1.4l-.9-.5c-1.3.4-1.4.6-4.2.7 2.3-.4-1.8-.7.8-1.2-6-1-8.9 1-11.6-.5-2.7 1.3 5.2.7 3.6 1 1.3.4-2.3.9-4.1.8-1.4 0-3.1-1.2-8.4-1.5-.1.8-.1 1.7-.1 2.8 0-.7-.1-.8-.1-1.5-.3 2.5.4 6-.1 7.7.8 1.2 0 2.9.9 3.2l-.2-4.4c.3 2.5 1.4 4.8.8 8.9-.2-.3-.5-1.5-.6-2.4-.3 1.2.2 2.3-.1 3.6-1-.4-.2-5.3-1-8-.4 1.3.7 5.1-.3 3.7 1.3 1.9-.2 4.7.9 8l-.6-.2c.1.5.4 1.6.4 2.5l-.8-1.7c.6 2.6-.6 5.1-.2 7.6 0-5.3.7-1.2 1.1-3.4.8 6.5-1.5 3.7-1.2 11-.1-1 .3-3.7.6-2.2-.1 1.4-.3 3.2-.6 4.1.1 4.8.6-.7 1 1.3-.7 1.6.3 2.4.5 4.5h-.6c-.4 5.5 1.2 1.5.8 6.4l-.8-2.1.2 2.6-.7-.5c.5 2.8.4 3.7.2 6.4.4-.6 1.1.4 1.1 2.8-.4 1.7-.6-.9-.5 2.5-.4-.8-.8-1.6-.3-3.1-.2-.2-.4-.8-.6-.9-.4 1.8-.1 4.5-.1 5.7 0-.5.1-1.1.1-1.4l.8 5c-.2.8-.4.2-.6-.5.1 1 .3 1.7.4 3.2-.5-.4-1-.3-1.2-2.4l.5 4.8c-.2.3-.6 2.4-.8 1.8-.3 2.6.9 6.5.6 10 .1.2.2.5.3 1.3-.1 3.3-.7 6.2 0 10.1l-.9 2.2c.2 3.1 1.1-3 1.4 2.1.3 3.6-.7 1.3-1 2.6.4 1.8 1.3 4.9.6 8.2-.1-.7.1-1.6 0-2.6zm.4 37.7c-.1-.7-.5-2.2-.2-2.7.7.8.4 1.5.2 2.7zm32.3 29c-.5.2-1.4.1-2.3-.1.6 0 1.4 0 2.3.1zm136.6-21.5c-.2 1.7-.1 1.1 0 0zm.2-3.4c-.1-.3-.2-.3-.2-.2.1.2.2 1 .1 1.9.2-.3.3-.7.1-1.7zM1259.9 18.1l-.2.2c-.1-.9.1-.6.2-.2z"/>
      <path class="st1" d="M1280.7 189.3c-.2-.1-.3-.2-.3-.3-.3.1-.3.2.3.3zM1254.2 98.3v-.1c0-.1-.1-.1-.1-.1l.1.2zM1397.9 189.7c-.7-.1-1.1-.2-1.3-.3-.1.1.2.2 1.3.3zM1423 145.7l.2 2.2c0-1 .1-1.4.2-2-.2 0-.4.4-.4-.2zM1426.7 126.8c-.1-.3 0-.7-.1-1l-.3.1c0 1.4.3 2.3.4.9zM1425 143.6c.5-.2.3-1.5.2-3.1v.3c-.7-.4-.4 1.2-.2 2.8zM1425.2 140.2v-1.4c-.3-.1-.1.6 0 1.4zM1423.7 159.3c.1-.7-.6-.5-.4-.9-.7-.8.7 4.8.4.9zM1426.6 142.4l-.6.6.5.8zM1426.2 154.4l.2-2.4c-.1 0-.2-.3-.2-.7-.1 1.5-.2 3.2 0 3.1zM1426.1 151.3c0-.8 0-1.5-.1-2 0 .5.1 1.4.1 2zM1426.8 145.7l-.1.8-.1 1.7zM1426.1 180.5l.2 2.6c.2.3.3-.4.3-1.4-.3-.6-.3-1.6-.5-1.2zM1427.7 172.5c-.1.7-.3.8-.5 1.2l.8.1-.3-1.3zM1427.9 180.2c.2.3.6 3.8.6.5-.2-.3-.4-2.9-.6-.5zM1393.8 187.6h.6l-.1-1.3zM1358.6 190.6c3.1.3.7-.8 3.6-.4.7-.3-2.3-.3-1.6-.6-1.9.3-2.9.2-2 1zM1360.6 189.6c.3 0 .6-.1 1-.2-.6.1-.8.2-1 .2zM1379.5 18l2 .3-1.3-.4zM1383.4 17.1l.5.8 1.2-.7c-.5 0-1.4.1-1.7-.1zM1253.3 165.1l.2.2c.2-.3.2-.8.3-1.7l-.5 1.5zM1253.9 137.8v.4l.7-.9zM1253 114.8c0 .9.1 2 .1 3-.2-2.1.8-3.3-.1-3z"/>
    </g>
  </g>
</svg>